<mxfile host="app.diagrams.net" agent="Mozilla/5.0 (Windows NT 10.0; Win64; x64; rv:136.0) Gecko/20100101 Firefox/136.0" version="26.2.6">
  <diagram name="第 1 页" id="6DpLlCWaY8ZBgLnBTP_y">
    <mxGraphModel dx="2042" dy="751" grid="1" gridSize="10" guides="1" tooltips="1" connect="1" arrows="1" fold="1" page="1" pageScale="1" pageWidth="827" pageHeight="1169" math="0" shadow="0">
      <root>
        <mxCell id="0" />
        <mxCell id="1" parent="0" />
        <mxCell id="Bfk7pSOGzqyUmf910UU_-2" value="" style="edgeStyle=orthogonalEdgeStyle;rounded=0;orthogonalLoop=1;jettySize=auto;html=1;" edge="1" parent="1" source="Bfk7pSOGzqyUmf910UU_-3" target="Bfk7pSOGzqyUmf910UU_-7">
          <mxGeometry relative="1" as="geometry" />
        </mxCell>
        <mxCell id="Bfk7pSOGzqyUmf910UU_-3" value="&lt;p class=&quot;MsoNormal&quot;&gt;&lt;span style=&quot;mso-spacerun:&#39;yes&#39;;font-family:宋体;mso-bidi-font-family:&#39;Times New Roman&#39;;&lt;br/&gt;font-size:10.5000pt;mso-font-kerning:1.0000pt;&quot;&gt;&lt;font face=&quot;宋体&quot;&gt;Psi 提取光标位置函数代码和类信息&lt;/font&gt;&lt;/span&gt;&lt;/p&gt;" style="rounded=1;whiteSpace=wrap;html=1;fillColor=#dae8fc;strokeColor=#6c8ebf;" vertex="1" parent="1">
          <mxGeometry x="-90" y="370" width="120" height="60" as="geometry" />
        </mxCell>
        <mxCell id="Bfk7pSOGzqyUmf910UU_-4" value="" style="endArrow=classic;html=1;rounded=0;entryX=0;entryY=0.5;entryDx=0;entryDy=0;" edge="1" parent="1" target="Bfk7pSOGzqyUmf910UU_-3">
          <mxGeometry width="50" height="50" relative="1" as="geometry">
            <mxPoint x="-140" y="400" as="sourcePoint" />
            <mxPoint x="-80" y="400" as="targetPoint" />
          </mxGeometry>
        </mxCell>
        <mxCell id="Bfk7pSOGzqyUmf910UU_-5" value="" style="edgeStyle=orthogonalEdgeStyle;rounded=0;orthogonalLoop=1;jettySize=auto;html=1;entryX=0;entryY=0.5;entryDx=0;entryDy=0;" edge="1" parent="1" source="Bfk7pSOGzqyUmf910UU_-7" target="Bfk7pSOGzqyUmf910UU_-9">
          <mxGeometry relative="1" as="geometry" />
        </mxCell>
        <mxCell id="Bfk7pSOGzqyUmf910UU_-6" style="edgeStyle=orthogonalEdgeStyle;rounded=0;orthogonalLoop=1;jettySize=auto;html=1;exitX=1;exitY=0.5;exitDx=0;exitDy=0;entryX=0;entryY=0.5;entryDx=0;entryDy=0;" edge="1" parent="1" source="Bfk7pSOGzqyUmf910UU_-7" target="Bfk7pSOGzqyUmf910UU_-11">
          <mxGeometry relative="1" as="geometry" />
        </mxCell>
        <mxCell id="Bfk7pSOGzqyUmf910UU_-7" value="构造单元测试生成Prompt" style="whiteSpace=wrap;html=1;rounded=1;fillColor=#dae8fc;strokeColor=#6c8ebf;" vertex="1" parent="1">
          <mxGeometry x="60" y="370" width="120" height="60" as="geometry" />
        </mxCell>
        <mxCell id="Bfk7pSOGzqyUmf910UU_-8" value="" style="edgeStyle=orthogonalEdgeStyle;rounded=0;orthogonalLoop=1;jettySize=auto;html=1;" edge="1" parent="1" source="Bfk7pSOGzqyUmf910UU_-9" target="Bfk7pSOGzqyUmf910UU_-13">
          <mxGeometry relative="1" as="geometry" />
        </mxCell>
        <mxCell id="Bfk7pSOGzqyUmf910UU_-9" value="调用 ChatGPT API" style="whiteSpace=wrap;html=1;rounded=1;fillColor=#e1d5e7;strokeColor=#9673a6;" vertex="1" parent="1">
          <mxGeometry x="234" y="350" width="120" height="30" as="geometry" />
        </mxCell>
        <mxCell id="Bfk7pSOGzqyUmf910UU_-10" style="edgeStyle=orthogonalEdgeStyle;rounded=0;orthogonalLoop=1;jettySize=auto;html=1;exitX=1;exitY=0.5;exitDx=0;exitDy=0;entryX=0;entryY=0.5;entryDx=0;entryDy=0;" edge="1" parent="1" source="Bfk7pSOGzqyUmf910UU_-11" target="Bfk7pSOGzqyUmf910UU_-13">
          <mxGeometry relative="1" as="geometry" />
        </mxCell>
        <mxCell id="Bfk7pSOGzqyUmf910UU_-11" value="调用 Ollama API" style="whiteSpace=wrap;html=1;rounded=1;fillColor=#d5e8d4;strokeColor=#82b366;" vertex="1" parent="1">
          <mxGeometry x="234" y="410" width="120" height="30" as="geometry" />
        </mxCell>
        <mxCell id="Bfk7pSOGzqyUmf910UU_-12" value="" style="edgeStyle=orthogonalEdgeStyle;rounded=0;orthogonalLoop=1;jettySize=auto;html=1;" edge="1" parent="1" source="Bfk7pSOGzqyUmf910UU_-13" target="Bfk7pSOGzqyUmf910UU_-26">
          <mxGeometry relative="1" as="geometry" />
        </mxCell>
        <mxCell id="Bfk7pSOGzqyUmf910UU_-13" value="&lt;div&gt;流式获取&lt;/div&gt;&lt;div&gt;生成的单元测试&lt;/div&gt;" style="rounded=1;whiteSpace=wrap;html=1;fillColor=#dae8fc;strokeColor=#6c8ebf;" vertex="1" parent="1">
          <mxGeometry x="410" y="370" width="120" height="60" as="geometry" />
        </mxCell>
        <mxCell id="Bfk7pSOGzqyUmf910UU_-14" value="" style="edgeStyle=orthogonalEdgeStyle;rounded=0;orthogonalLoop=1;jettySize=auto;html=1;" edge="1" parent="1" source="Bfk7pSOGzqyUmf910UU_-15" target="Bfk7pSOGzqyUmf910UU_-19">
          <mxGeometry relative="1" as="geometry" />
        </mxCell>
        <mxCell id="Bfk7pSOGzqyUmf910UU_-15" value="&lt;div&gt;获取需要修复的&lt;/div&gt;&lt;div&gt;单元测试代码&lt;/div&gt;" style="rounded=1;whiteSpace=wrap;html=1;fillColor=#dae8fc;strokeColor=#6c8ebf;" vertex="1" parent="1">
          <mxGeometry x="-90" y="500" width="120" height="60" as="geometry" />
        </mxCell>
        <mxCell id="Bfk7pSOGzqyUmf910UU_-16" value="" style="endArrow=classic;html=1;rounded=0;entryX=0;entryY=0.5;entryDx=0;entryDy=0;" edge="1" parent="1" target="Bfk7pSOGzqyUmf910UU_-15">
          <mxGeometry width="50" height="50" relative="1" as="geometry">
            <mxPoint x="-140" y="530" as="sourcePoint" />
            <mxPoint x="-80" y="530" as="targetPoint" />
          </mxGeometry>
        </mxCell>
        <mxCell id="Bfk7pSOGzqyUmf910UU_-17" value="" style="edgeStyle=orthogonalEdgeStyle;rounded=0;orthogonalLoop=1;jettySize=auto;html=1;entryX=0;entryY=0.5;entryDx=0;entryDy=0;" edge="1" parent="1" source="Bfk7pSOGzqyUmf910UU_-19" target="Bfk7pSOGzqyUmf910UU_-21">
          <mxGeometry relative="1" as="geometry" />
        </mxCell>
        <mxCell id="Bfk7pSOGzqyUmf910UU_-18" style="edgeStyle=orthogonalEdgeStyle;rounded=0;orthogonalLoop=1;jettySize=auto;html=1;exitX=1;exitY=0.5;exitDx=0;exitDy=0;entryX=0;entryY=0.5;entryDx=0;entryDy=0;" edge="1" parent="1" source="Bfk7pSOGzqyUmf910UU_-19" target="Bfk7pSOGzqyUmf910UU_-23">
          <mxGeometry relative="1" as="geometry" />
        </mxCell>
        <mxCell id="Bfk7pSOGzqyUmf910UU_-19" value="&lt;div&gt;构造修复代码&lt;/div&gt;&lt;div&gt;&amp;nbsp;Prompt&lt;/div&gt;" style="whiteSpace=wrap;html=1;rounded=1;fillColor=#dae8fc;strokeColor=#6c8ebf;" vertex="1" parent="1">
          <mxGeometry x="60" y="500" width="120" height="60" as="geometry" />
        </mxCell>
        <mxCell id="Bfk7pSOGzqyUmf910UU_-20" value="" style="edgeStyle=orthogonalEdgeStyle;rounded=0;orthogonalLoop=1;jettySize=auto;html=1;" edge="1" parent="1" source="Bfk7pSOGzqyUmf910UU_-21" target="Bfk7pSOGzqyUmf910UU_-25">
          <mxGeometry relative="1" as="geometry" />
        </mxCell>
        <mxCell id="Bfk7pSOGzqyUmf910UU_-21" value="调用 ChatGPT API" style="whiteSpace=wrap;html=1;rounded=1;fillColor=#e1d5e7;strokeColor=#9673a6;" vertex="1" parent="1">
          <mxGeometry x="234" y="480" width="120" height="30" as="geometry" />
        </mxCell>
        <mxCell id="Bfk7pSOGzqyUmf910UU_-22" style="edgeStyle=orthogonalEdgeStyle;rounded=0;orthogonalLoop=1;jettySize=auto;html=1;exitX=1;exitY=0.5;exitDx=0;exitDy=0;entryX=0;entryY=0.5;entryDx=0;entryDy=0;" edge="1" parent="1" source="Bfk7pSOGzqyUmf910UU_-23" target="Bfk7pSOGzqyUmf910UU_-25">
          <mxGeometry relative="1" as="geometry" />
        </mxCell>
        <mxCell id="Bfk7pSOGzqyUmf910UU_-23" value="调用 Ollama API" style="whiteSpace=wrap;html=1;rounded=1;fillColor=#d5e8d4;strokeColor=#82b366;" vertex="1" parent="1">
          <mxGeometry x="234" y="540" width="120" height="30" as="geometry" />
        </mxCell>
        <mxCell id="Bfk7pSOGzqyUmf910UU_-24" style="edgeStyle=orthogonalEdgeStyle;rounded=0;orthogonalLoop=1;jettySize=auto;html=1;exitX=1;exitY=0.5;exitDx=0;exitDy=0;" edge="1" parent="1" source="Bfk7pSOGzqyUmf910UU_-25" target="Bfk7pSOGzqyUmf910UU_-27">
          <mxGeometry relative="1" as="geometry" />
        </mxCell>
        <mxCell id="Bfk7pSOGzqyUmf910UU_-25" value="&lt;div&gt;流式获取&lt;/div&gt;&lt;div&gt;修复后的代码&lt;/div&gt;" style="rounded=1;whiteSpace=wrap;html=1;fillColor=#dae8fc;strokeColor=#6c8ebf;" vertex="1" parent="1">
          <mxGeometry x="410" y="500" width="120" height="60" as="geometry" />
        </mxCell>
        <mxCell id="Bfk7pSOGzqyUmf910UU_-26" value="渲染到插件代码框中" style="whiteSpace=wrap;html=1;rounded=1;fillColor=#dae8fc;strokeColor=#6c8ebf;" vertex="1" parent="1">
          <mxGeometry x="570" y="370" width="120" height="60" as="geometry" />
        </mxCell>
        <mxCell id="Bfk7pSOGzqyUmf910UU_-27" value="渲染到插件代码框中" style="whiteSpace=wrap;html=1;rounded=1;fillColor=#dae8fc;strokeColor=#6c8ebf;" vertex="1" parent="1">
          <mxGeometry x="570" y="500" width="120" height="60" as="geometry" />
        </mxCell>
        <mxCell id="Bfk7pSOGzqyUmf910UU_-28" value="&lt;div&gt;用户交互层&lt;/div&gt;" style="swimlane;whiteSpace=wrap;html=1;startSize=23;fillColor=#dae8fc;strokeColor=#6c8ebf;swimlaneFillColor=none;" vertex="1" parent="1">
          <mxGeometry x="-80" y="80" width="190" height="190" as="geometry">
            <mxRectangle x="-170" y="80" width="100" height="30" as="alternateBounds" />
          </mxGeometry>
        </mxCell>
        <mxCell id="Bfk7pSOGzqyUmf910UU_-29" value="生成按钮" style="rounded=0;whiteSpace=wrap;html=1;fillColor=#dae8fc;strokeColor=#6c8ebf;" vertex="1" parent="Bfk7pSOGzqyUmf910UU_-28">
          <mxGeometry x="15" y="40" width="70" height="30" as="geometry" />
        </mxCell>
        <mxCell id="Bfk7pSOGzqyUmf910UU_-30" value="工具窗口" style="rounded=0;whiteSpace=wrap;html=1;fillColor=#dae8fc;strokeColor=#6c8ebf;" vertex="1" parent="Bfk7pSOGzqyUmf910UU_-28">
          <mxGeometry x="105" y="40" width="70" height="30" as="geometry" />
        </mxCell>
        <mxCell id="Bfk7pSOGzqyUmf910UU_-31" value="模型选择" style="rounded=0;whiteSpace=wrap;html=1;fillColor=#dae8fc;strokeColor=#6c8ebf;" vertex="1" parent="Bfk7pSOGzqyUmf910UU_-28">
          <mxGeometry x="15" y="85" width="70" height="30" as="geometry" />
        </mxCell>
        <mxCell id="Bfk7pSOGzqyUmf910UU_-32" value="代码编辑" style="rounded=0;whiteSpace=wrap;html=1;fillColor=#dae8fc;strokeColor=#6c8ebf;" vertex="1" parent="Bfk7pSOGzqyUmf910UU_-28">
          <mxGeometry x="105" y="85" width="70" height="30" as="geometry" />
        </mxCell>
        <mxCell id="Bfk7pSOGzqyUmf910UU_-33" value="功能按钮" style="rounded=0;whiteSpace=wrap;html=1;fillColor=#dae8fc;strokeColor=#6c8ebf;" vertex="1" parent="Bfk7pSOGzqyUmf910UU_-28">
          <mxGeometry x="15" y="130" width="70" height="30" as="geometry" />
        </mxCell>
        <mxCell id="Bfk7pSOGzqyUmf910UU_-34" value="流式输出" style="rounded=0;whiteSpace=wrap;html=1;fillColor=#dae8fc;strokeColor=#6c8ebf;" vertex="1" parent="Bfk7pSOGzqyUmf910UU_-28">
          <mxGeometry x="105" y="130" width="70" height="30" as="geometry" />
        </mxCell>
        <mxCell id="Bfk7pSOGzqyUmf910UU_-35" style="edgeStyle=orthogonalEdgeStyle;rounded=0;orthogonalLoop=1;jettySize=auto;html=1;exitX=0;exitY=0.75;exitDx=0;exitDy=0;entryX=1;entryY=0.75;entryDx=0;entryDy=0;" edge="1" parent="1" source="Bfk7pSOGzqyUmf910UU_-37" target="Bfk7pSOGzqyUmf910UU_-28">
          <mxGeometry relative="1" as="geometry" />
        </mxCell>
        <mxCell id="Bfk7pSOGzqyUmf910UU_-36" value="&lt;div&gt;逻辑处理后渲染&lt;/div&gt;&lt;div&gt;到插件&lt;/div&gt;" style="edgeLabel;html=1;align=center;verticalAlign=middle;resizable=0;points=[];" vertex="1" connectable="0" parent="Bfk7pSOGzqyUmf910UU_-35">
          <mxGeometry x="-0.18" y="1" relative="1" as="geometry">
            <mxPoint x="-9" y="-18" as="offset" />
          </mxGeometry>
        </mxCell>
        <mxCell id="Bfk7pSOGzqyUmf910UU_-37" value="&lt;div&gt;逻辑处理层&lt;/div&gt;" style="swimlane;whiteSpace=wrap;html=1;startSize=23;fillColor=#f8cecc;strokeColor=#b85450;" vertex="1" parent="1">
          <mxGeometry x="210" y="80" width="190" height="190" as="geometry">
            <mxRectangle x="-170" y="80" width="100" height="30" as="alternateBounds" />
          </mxGeometry>
        </mxCell>
        <mxCell id="Bfk7pSOGzqyUmf910UU_-38" value="代码解析模块" style="rounded=0;whiteSpace=wrap;html=1;fillColor=#f8cecc;strokeColor=#b85450;" vertex="1" parent="Bfk7pSOGzqyUmf910UU_-37">
          <mxGeometry x="45" y="30" width="100" height="30" as="geometry" />
        </mxCell>
        <mxCell id="Bfk7pSOGzqyUmf910UU_-39" value="LLM 调用模块" style="rounded=0;whiteSpace=wrap;html=1;fillColor=#f8cecc;strokeColor=#b85450;" vertex="1" parent="Bfk7pSOGzqyUmf910UU_-37">
          <mxGeometry x="45" y="70" width="100" height="30" as="geometry" />
        </mxCell>
        <mxCell id="Bfk7pSOGzqyUmf910UU_-40" value="测试生成模块" style="rounded=0;whiteSpace=wrap;html=1;fillColor=#f8cecc;strokeColor=#b85450;" vertex="1" parent="Bfk7pSOGzqyUmf910UU_-37">
          <mxGeometry x="45" y="110" width="100" height="30" as="geometry" />
        </mxCell>
        <mxCell id="Bfk7pSOGzqyUmf910UU_-41" value="代码修复模块" style="rounded=0;whiteSpace=wrap;html=1;fillColor=#f8cecc;strokeColor=#b85450;" vertex="1" parent="Bfk7pSOGzqyUmf910UU_-37">
          <mxGeometry x="45" y="150" width="100" height="30" as="geometry" />
        </mxCell>
        <mxCell id="Bfk7pSOGzqyUmf910UU_-42" style="edgeStyle=orthogonalEdgeStyle;rounded=0;orthogonalLoop=1;jettySize=auto;html=1;exitX=0;exitY=0.75;exitDx=0;exitDy=0;entryX=1;entryY=0.75;entryDx=0;entryDy=0;" edge="1" parent="1" source="Bfk7pSOGzqyUmf910UU_-44" target="Bfk7pSOGzqyUmf910UU_-37">
          <mxGeometry relative="1" as="geometry" />
        </mxCell>
        <mxCell id="Bfk7pSOGzqyUmf910UU_-43" value="返回模型结果" style="edgeLabel;html=1;align=center;verticalAlign=middle;resizable=0;points=[];" vertex="1" connectable="0" parent="Bfk7pSOGzqyUmf910UU_-42">
          <mxGeometry x="-0.08" relative="1" as="geometry">
            <mxPoint y="-12" as="offset" />
          </mxGeometry>
        </mxCell>
        <mxCell id="Bfk7pSOGzqyUmf910UU_-44" value="&lt;div&gt;后端服务层&lt;/div&gt;" style="swimlane;whiteSpace=wrap;html=1;startSize=23;fillColor=#e1d5e7;strokeColor=#9673a6;" vertex="1" parent="1">
          <mxGeometry x="500" y="80" width="190" height="190" as="geometry">
            <mxRectangle x="-170" y="80" width="100" height="30" as="alternateBounds" />
          </mxGeometry>
        </mxCell>
        <mxCell id="Bfk7pSOGzqyUmf910UU_-45" value="ChatGPT 云端模型" style="rounded=0;whiteSpace=wrap;html=1;fillColor=#e1d5e7;strokeColor=#9673a6;" vertex="1" parent="Bfk7pSOGzqyUmf910UU_-44">
          <mxGeometry x="35" y="60" width="120" height="30" as="geometry" />
        </mxCell>
        <mxCell id="Bfk7pSOGzqyUmf910UU_-46" value="Ollama 本地模型" style="rounded=0;whiteSpace=wrap;html=1;fillColor=#e1d5e7;strokeColor=#9673a6;" vertex="1" parent="Bfk7pSOGzqyUmf910UU_-44">
          <mxGeometry x="35" y="120" width="120" height="30" as="geometry" />
        </mxCell>
        <mxCell id="Bfk7pSOGzqyUmf910UU_-47" value="" style="endArrow=classic;html=1;rounded=0;" edge="1" parent="1">
          <mxGeometry width="50" height="50" relative="1" as="geometry">
            <mxPoint x="110" y="140" as="sourcePoint" />
            <mxPoint x="210" y="140" as="targetPoint" />
          </mxGeometry>
        </mxCell>
        <mxCell id="Bfk7pSOGzqyUmf910UU_-48" value="&lt;div&gt;调用相应逻辑处理&lt;/div&gt;" style="edgeLabel;html=1;align=center;verticalAlign=middle;resizable=0;points=[];" vertex="1" connectable="0" parent="Bfk7pSOGzqyUmf910UU_-47">
          <mxGeometry x="0.04" y="2" relative="1" as="geometry">
            <mxPoint x="-2" y="-13" as="offset" />
          </mxGeometry>
        </mxCell>
        <mxCell id="Bfk7pSOGzqyUmf910UU_-49" value="" style="endArrow=classic;html=1;rounded=0;" edge="1" parent="1">
          <mxGeometry width="50" height="50" relative="1" as="geometry">
            <mxPoint x="400" y="140" as="sourcePoint" />
            <mxPoint x="500" y="140" as="targetPoint" />
          </mxGeometry>
        </mxCell>
        <mxCell id="Bfk7pSOGzqyUmf910UU_-50" value="请求相应后端模型" style="edgeLabel;html=1;align=center;verticalAlign=middle;resizable=0;points=[];" vertex="1" connectable="0" parent="Bfk7pSOGzqyUmf910UU_-49">
          <mxGeometry x="-0.24" y="-1" relative="1" as="geometry">
            <mxPoint x="12" y="-16" as="offset" />
          </mxGeometry>
        </mxCell>
      </root>
    </mxGraphModel>
  </diagram>
</mxfile>
